<svg width="52" height="32" viewBox="0 0 52 32" fill="none" xmlns="http://www.w3.org/2000/svg">
<path d="M14.038 0.533325C16.7034 0.537894 19.3076 1.32641 21.5216 2.79924C23.7355 4.27207 25.4598 6.36311 26.4766 8.80812C27.4935 11.2531 27.7571 13.9424 27.2343 16.536C26.7115 19.1297 25.4257 21.5114 23.5393 23.3801C21.653 25.2488 19.2508 26.5207 16.6363 27.035C14.0218 27.5494 11.3123 27.2831 8.85027 26.2698C6.38822 25.2566 4.28408 23.5418 2.80375 21.3422C1.32342 19.1426 0.533329 16.5569 0.533325 13.9119C0.540433 10.3618 1.96627 6.95954 4.49802 4.45144C7.02978 1.94334 10.4607 0.534252 14.038 0.533325ZM14.038 22.0695C15.6633 22.0667 17.2512 21.5859 18.6012 20.6879C19.9511 19.7898 21.0025 18.5148 21.6225 17.0239C22.2425 15.5331 22.4033 13.8933 22.0845 12.3118C21.7657 10.7303 20.9817 9.27805 19.8315 8.13859C18.6813 6.99914 17.2165 6.2236 15.6223 5.90997C14.0281 5.59635 12.376 5.75872 10.8748 6.37656C9.37352 6.99441 8.09051 8.04 7.18787 9.38121C6.28523 10.7224 5.80347 12.299 5.80347 13.9119C5.80786 16.0765 6.67729 18.151 8.22103 19.6804C9.76477 21.2097 11.8567 22.0689 14.038 22.0695Z" fill="#EF994A"/>
<path d="M25.5178 16.5599C25.5178 16.9289 25.4467 16.9998 25.0773 16.9998H24.4379C24.0685 16.9998 23.9974 16.9289 23.9974 16.5599V15.354H23.0175V16.7158C23.0175 17.4678 23.3869 17.8364 24.1395 17.8364H25.3757C26.1287 17.8364 26.4977 17.4674 26.4977 16.7158V13.9922C26.4977 13.2402 26.1283 12.8716 25.3757 12.8716H24.4095C24.0401 12.8716 23.969 12.8007 23.969 12.4318V10.2897C23.969 9.9208 24.0401 9.84991 24.4095 9.84991H25.0631C25.4325 9.84991 25.5035 9.9208 25.5035 10.2897V11.4957H26.4835V10.1339C26.4835 9.38186 26.1141 9.01331 25.3615 9.01331H24.1111C23.3581 9.01331 22.989 9.38226 22.989 10.1339V12.588C22.989 13.34 23.3585 13.7086 24.1111 13.7086H25.0773C25.4467 13.7086 25.5178 13.7795 25.5178 14.1484V16.5599ZM30.5491 16.7922C30.5491 17.0938 30.4911 17.1521 30.1888 17.1521H29.7238C29.4448 17.1521 29.3292 17.0476 29.3292 16.7342V13.3103C29.3292 12.9969 29.4452 12.8924 29.7238 12.8924H30.1888C30.4911 12.8924 30.5491 12.9503 30.5491 13.2523V16.7922ZM29.9681 12.2097C29.8334 12.1909 29.6964 12.2188 29.5799 12.2885C29.4635 12.3583 29.3748 12.4657 29.3288 12.5927V12.2097H28.5268V19.4751H29.3288V17.4537C29.3748 17.5807 29.4635 17.6882 29.5799 17.7579C29.6964 17.8277 29.8334 17.8555 29.9681 17.8368H30.4331C30.5585 17.8548 30.6864 17.8434 30.8066 17.8035C30.9267 17.7637 31.0358 17.6964 31.125 17.6071C31.2143 17.5179 31.2812 17.4091 31.3205 17.2896C31.3597 17.17 31.3702 17.043 31.3511 16.9187V13.1235C31.37 12.9992 31.3594 12.8724 31.32 12.753C31.2807 12.6336 31.2137 12.525 31.1245 12.4359C31.0353 12.3467 30.9263 12.2796 30.8062 12.2398C30.6861 12.2 30.5584 12.1886 30.4331 12.2066L29.9681 12.2097ZM33.9082 17.8368V12.2077H33.1062V17.8368H33.9082ZM33.0829 11.0006H33.9295V10.0606H33.081L33.0829 11.0006ZM36.8257 17.1537C36.5234 17.1537 36.4653 17.0957 36.4653 16.7938V13.2406C36.4653 12.939 36.5234 12.8806 36.8257 12.8806H37.2906C37.5697 12.8806 37.6853 12.9852 37.6853 13.2985V16.7338C37.6853 17.0472 37.5693 17.1517 37.2906 17.1517L36.8257 17.1537ZM37.6857 10.0739V12.5806C37.6397 12.4536 37.551 12.3462 37.4345 12.2764C37.3181 12.2066 37.181 12.1788 37.0463 12.1976H36.5814C36.4561 12.1796 36.3283 12.191 36.2082 12.2308C36.0882 12.2706 35.9792 12.3377 35.89 12.4268C35.8007 12.516 35.7338 12.6246 35.6944 12.744C35.6551 12.8634 35.6444 12.9902 35.6634 13.1144V16.9187C35.6444 17.0429 35.6551 17.1698 35.6944 17.2892C35.7338 17.4086 35.8007 17.5172 35.89 17.6063C35.9792 17.6954 36.0882 17.7626 36.2082 17.8024C36.3283 17.8422 36.4561 17.8536 36.5814 17.8356H37.0475C37.1822 17.8544 37.3193 17.8265 37.4357 17.7568C37.5522 17.687 37.6409 17.5796 37.6869 17.4525V17.8356H38.4889V10.072L37.6857 10.0739ZM41.1028 14.6102V13.2523C41.1028 12.9507 41.1608 12.8924 41.4632 12.8924H42.0441C42.3465 12.8924 42.4045 12.9503 42.4045 13.2523V14.6102H41.1028ZM41.2189 12.2077C41.0936 12.1898 40.9658 12.2011 40.8457 12.241C40.7257 12.2808 40.6167 12.3479 40.5274 12.437C40.4382 12.5261 40.3712 12.6347 40.3319 12.7541C40.2925 12.8735 40.2819 13.0004 40.3008 13.1246V16.9187C40.2817 17.043 40.2922 17.1701 40.3315 17.2897C40.3707 17.4093 40.4377 17.5181 40.527 17.6073C40.6163 17.6966 40.7254 17.7638 40.8456 17.8037C40.9659 17.8435 41.0938 17.8549 41.2192 17.8368H42.2537C42.3791 17.8548 42.507 17.8434 42.6272 17.8035C42.7473 17.7637 42.8564 17.6964 42.9457 17.6071C43.0349 17.5179 43.1019 17.4091 43.1411 17.2896C43.1804 17.17 43.1908 17.043 43.1717 16.9187V16.2815H42.3697V16.7906C42.3697 17.0922 42.3117 17.1506 42.0094 17.1506H41.4632C41.1608 17.1506 41.1028 17.0926 41.1028 16.7906V15.2949H43.2065V13.1246C43.2254 13.0004 43.2147 12.8735 43.1754 12.754C43.136 12.6346 43.069 12.526 42.9797 12.4368C42.8905 12.3477 42.7814 12.2806 42.6613 12.2408C42.5412 12.201 42.4134 12.1897 42.288 12.2077H41.2189ZM46.5423 12.2077C46.3507 12.2113 46.1654 12.2766 46.0145 12.3938C45.8635 12.511 45.7551 12.6738 45.7056 12.8575V12.2077H44.9036V17.8368H45.7056V13.7744C45.7056 13.1826 45.9266 12.9041 46.4377 12.9041H46.7862V12.2077H46.5423ZM49.8667 16.8036C49.8667 17.1051 49.8086 17.1635 49.5063 17.1635H49.1906C48.8882 17.1635 48.8302 17.1055 48.8302 16.8036V16.3512H48.0409V16.9187C48.022 17.0429 48.0326 17.1698 48.0719 17.2892C48.1113 17.4086 48.1783 17.5172 48.2675 17.6063C48.3567 17.6954 48.4657 17.7626 48.5858 17.8024C48.7058 17.8422 48.8336 17.8536 48.9589 17.8356H49.7376C49.863 17.8538 49.991 17.8427 50.1112 17.803C50.2315 17.7633 50.3407 17.6962 50.4301 17.607C50.5196 17.5179 50.5867 17.4092 50.6261 17.2896C50.6655 17.1701 50.6762 17.0431 50.6572 16.9187V15.6199C50.6761 15.4957 50.6655 15.3688 50.6261 15.2493C50.5868 15.1299 50.5198 15.0213 50.4305 14.9322C50.3412 14.843 50.2322 14.7759 50.112 14.7361C49.9919 14.6963 49.8641 14.685 49.7388 14.703H49.1693C48.8669 14.703 48.8089 14.6451 48.8089 14.3431V13.2406C48.8089 12.939 48.8669 12.8806 49.1693 12.8806H49.4949C49.7972 12.8806 49.8552 12.9386 49.8552 13.2406V13.6933H50.6446V13.1246C50.6635 13.0004 50.6528 12.8735 50.6135 12.7541C50.5742 12.6347 50.5072 12.5261 50.418 12.437C50.3287 12.3479 50.2197 12.2808 50.0997 12.241C49.9796 12.2011 49.8518 12.1898 49.7265 12.2077H48.9372C48.8119 12.1898 48.6842 12.2013 48.5642 12.2411C48.4442 12.2809 48.3352 12.3481 48.2461 12.4372C48.1569 12.5263 48.0899 12.6349 48.0506 12.7543C48.0113 12.8736 48.0007 13.0005 48.0196 13.1246V14.459C48.0006 14.5832 48.0113 14.7101 48.0506 14.8295C48.09 14.9489 48.1569 15.0575 48.2462 15.1466C48.3354 15.2358 48.4444 15.3029 48.5645 15.3427C48.6845 15.3825 48.8123 15.3939 48.9376 15.3759H49.5071C49.8094 15.3759 49.8674 15.4339 49.8674 15.7359L49.8667 16.8036Z" fill="black"/>
<path d="M15.0495 15.5227L22.7793 31.8662L26.9072 29.1006L15.0495 15.5227Z" fill="black"/>
</svg>
